<?xml version="1.0" encoding="UTF-8" standalone="no"?>
<!DOCTYPE svg PUBLIC "-//W3C//DTD SVG 1.1//EN"
 "http://www.w3.org/Graphics/SVG/1.1/DTD/svg11.dtd">
<!-- Generated by graphviz version 2.42.4 (0)
 -->
<!-- Title: DockerDeps Pages: 1 -->
<svg width="1265pt" height="900pt"
 viewBox="0.00 0.00 1265.00 899.75" xmlns="http://www.w3.org/2000/svg" xmlns:xlink="http://www.w3.org/1999/xlink">
<g id="graph0" class="graph" transform="scale(1 1) rotate(0) translate(4 895.75)">
<title>DockerDeps</title>
<polygon fill="white" stroke="transparent" points="-4,4 -4,-895.75 1261,-895.75 1261,4 -4,4"/>
<g id="clust1" class="cluster">
<title>clusterDockerfile</title>
<polygon fill="none" stroke="royalblue" points="353,-116 353,-812.75 815,-812.75 815,-116 353,-116"/>
<text text-anchor="middle" x="584" y="-797.55" font-family="Times,serif" font-size="14.00">docker/&lt;distro&gt;/Dockerfile</text>
</g>
<g id="clust2" class="cluster">
<title>clusterCache</title>
<polygon fill="none" stroke="royalblue" points="8,-8 8,-83 1125,-83 1125,-8 8,-8"/>
<text text-anchor="middle" x="566.5" y="-67.8" font-family="Times,serif" font-size="14.00">cache/&lt;distro&gt;/</text>
</g>
<!-- DISTRO_IMG -->
<g id="node1" class="node">
<title>DISTRO_IMG</title>
<path fill="royalblue" stroke="black" d="M520,-887.48C520,-889.28 498.49,-890.75 472,-890.75 445.51,-890.75 424,-889.28 424,-887.48 424,-887.48 424,-858.02 424,-858.02 424,-856.22 445.51,-854.75 472,-854.75 498.49,-854.75 520,-856.22 520,-858.02 520,-858.02 520,-887.48 520,-887.48"/>
<path fill="none" stroke="black" d="M520,-887.48C520,-885.67 498.49,-884.2 472,-884.2 445.51,-884.2 424,-885.67 424,-887.48"/>
<text text-anchor="middle" x="472" y="-869.05" font-family="Times,serif" font-size="14.00">&lt;distro&gt;:latest</text>
</g>
<!-- ENV_IMG -->
<g id="node5" class="node">
<title>ENV_IMG</title>
<path fill="royalblue" stroke="black" d="M615,-777.1C615,-779.74 580.49,-781.88 538,-781.88 495.51,-781.88 461,-779.74 461,-777.1 461,-777.1 461,-734.15 461,-734.15 461,-731.51 495.51,-729.37 538,-729.37 580.49,-729.37 615,-731.51 615,-734.15 615,-734.15 615,-777.1 615,-777.1"/>
<path fill="none" stroke="black" d="M615,-777.1C615,-774.47 580.49,-772.33 538,-772.33 495.51,-772.33 461,-774.47 461,-777.1"/>
<text text-anchor="middle" x="538" y="-759.42" font-family="Times,serif" font-size="14.00">cybermage:&lt;distro&gt;_env</text>
<text text-anchor="middle" x="538" y="-744.42" font-family="Times,serif" font-size="14.00">env</text>
</g>
<!-- DISTRO_IMG&#45;&gt;ENV_IMG -->
<g id="edge10" class="edge">
<title>DISTRO_IMG&#45;&gt;ENV_IMG</title>
<path fill="none" stroke="black" d="M482.02,-854.26C491.64,-837.5 506.41,-811.73 518.37,-790.87"/>
<polygon fill="black" stroke="black" points="521.53,-792.39 523.47,-781.98 515.46,-788.91 521.53,-792.39"/>
</g>
<!-- PKG -->
<g id="node2" class="node">
<title>PKG</title>
<polygon fill="royalblue" stroke="black" points="670,-891.75 542,-891.75 538,-887.75 538,-853.75 666,-853.75 670,-857.75 670,-891.75"/>
<polyline fill="none" stroke="black" points="666,-887.75 538,-887.75 "/>
<polyline fill="none" stroke="black" points="666,-887.75 666,-853.75 "/>
<polyline fill="none" stroke="black" points="666,-887.75 670,-891.75 "/>
<text text-anchor="middle" x="604" y="-876.55" font-family="Times,serif" font-size="14.00">packages</text>
<text text-anchor="middle" x="604" y="-861.55" font-family="Times,serif" font-size="14.00">e.g. cmake, g++, qt6</text>
</g>
<!-- PKG&#45;&gt;ENV_IMG -->
<g id="edge11" class="edge">
<title>PKG&#45;&gt;ENV_IMG</title>
<path fill="none" stroke="black" stroke-dasharray="5,2" d="M593.54,-853.51C583.92,-836.72 569.39,-811.38 557.61,-790.83"/>
<polygon fill="black" stroke="black" points="560.59,-788.99 552.58,-782.06 554.52,-792.48 560.59,-788.99"/>
<text text-anchor="middle" x="599" y="-824.55" font-family="Times,serif" font-size="14.00">install</text>
</g>
<!-- SRC -->
<g id="node3" class="node">
<title>SRC</title>
<polygon fill="royalblue" stroke="black" points="882.5,-773.62 879.5,-777.62 858.5,-777.62 855.5,-773.62 823.5,-773.62 823.5,-737.62 882.5,-737.62 882.5,-773.62"/>
<text text-anchor="middle" x="853" y="-751.92" font-family="Times,serif" font-size="14.00">git repo</text>
</g>
<!-- DEVEL_IMG -->
<g id="node6" class="node">
<title>DEVEL_IMG</title>
<path fill="royalblue" stroke="black" d="M764,-673.85C764,-676.49 727.25,-678.63 682,-678.63 636.75,-678.63 600,-676.49 600,-673.85 600,-673.85 600,-630.9 600,-630.9 600,-628.26 636.75,-626.12 682,-626.12 727.25,-626.12 764,-628.26 764,-630.9 764,-630.9 764,-673.85 764,-673.85"/>
<path fill="none" stroke="black" d="M764,-673.85C764,-671.22 727.25,-669.08 682,-669.08 636.75,-669.08 600,-671.22 600,-673.85"/>
<text text-anchor="middle" x="682" y="-656.17" font-family="Times,serif" font-size="14.00">cybermage:&lt;distro&gt;_devel</text>
<text text-anchor="middle" x="682" y="-641.17" font-family="Times,serif" font-size="14.00">devel</text>
</g>
<!-- SRC&#45;&gt;DEVEL_IMG -->
<g id="edge12" class="edge">
<title>SRC&#45;&gt;DEVEL_IMG</title>
<path fill="none" stroke="black" stroke-dasharray="5,2" d="M830.61,-737.45C826.79,-734.71 822.83,-731.96 819,-729.5 793.63,-713.17 764.53,-696.71 739.7,-683.29"/>
<polygon fill="black" stroke="black" points="741.22,-680.13 730.76,-678.49 737.91,-686.3 741.22,-680.13"/>
<text text-anchor="middle" x="799.5" y="-700.3" font-family="Times,serif" font-size="14.00">copy</text>
</g>
<!-- SPL -->
<g id="node4" class="node">
<title>SPL</title>
<polygon fill="royalblue" stroke="black" points="422.5,-477.88 419.5,-481.88 398.5,-481.88 395.5,-477.88 361.5,-477.88 361.5,-441.88 422.5,-441.88 422.5,-477.88"/>
<text text-anchor="middle" x="392" y="-456.18" font-family="Times,serif" font-size="14.00">samples</text>
</g>
<!-- INSTALL_DEVEL_IMG -->
<g id="node10" class="node">
<title>INSTALL_DEVEL_IMG</title>
<path fill="royalblue" stroke="black" d="M604.5,-378.1C604.5,-380.74 559.01,-382.88 503,-382.88 446.99,-382.88 401.5,-380.74 401.5,-378.1 401.5,-378.1 401.5,-335.15 401.5,-335.15 401.5,-332.51 446.99,-330.37 503,-330.37 559.01,-330.37 604.5,-332.51 604.5,-335.15 604.5,-335.15 604.5,-378.1 604.5,-378.1"/>
<path fill="none" stroke="black" d="M604.5,-378.1C604.5,-375.47 559.01,-373.33 503,-373.33 446.99,-373.33 401.5,-375.47 401.5,-378.1"/>
<text text-anchor="middle" x="503" y="-360.43" font-family="Times,serif" font-size="14.00">cybermage:&lt;distro&gt;_install_devel</text>
<text text-anchor="middle" x="503" y="-345.43" font-family="Times,serif" font-size="14.00">install_devel</text>
</g>
<!-- SPL&#45;&gt;INSTALL_DEVEL_IMG -->
<g id="edge7" class="edge">
<title>SPL&#45;&gt;INSTALL_DEVEL_IMG</title>
<path fill="none" stroke="black" stroke-dasharray="5,2" d="M410.83,-441.7C426.38,-427.52 448.87,-407 467.75,-389.78"/>
<polygon fill="black" stroke="black" points="470.29,-392.2 475.32,-382.87 465.57,-387.03 470.29,-392.2"/>
<text text-anchor="middle" x="467.5" y="-404.55" font-family="Times,serif" font-size="14.00">copy</text>
</g>
<!-- ENV_IMG&#45;&gt;DEVEL_IMG -->
<g id="edge1" class="edge">
<title>ENV_IMG&#45;&gt;DEVEL_IMG</title>
<path fill="none" stroke="black" d="M573.97,-729.34C593.3,-715.75 617.29,-698.87 637.76,-684.48"/>
<polygon fill="black" stroke="black" points="639.83,-687.31 645.99,-678.69 635.8,-681.58 639.83,-687.31"/>
</g>
<!-- INSTALL_ENV_IMG -->
<g id="node9" class="node">
<title>INSTALL_ENV_IMG</title>
<path fill="royalblue" stroke="black" d="M635,-481.35C635,-483.99 591.52,-486.13 538,-486.13 484.48,-486.13 441,-483.99 441,-481.35 441,-481.35 441,-438.4 441,-438.4 441,-435.76 484.48,-433.62 538,-433.62 591.52,-433.62 635,-435.76 635,-438.4 635,-438.4 635,-481.35 635,-481.35"/>
<path fill="none" stroke="black" d="M635,-481.35C635,-478.72 591.52,-476.58 538,-476.58 484.48,-476.58 441,-478.72 441,-481.35"/>
<text text-anchor="middle" x="538" y="-463.68" font-family="Times,serif" font-size="14.00">cybermage:&lt;distro&gt;_install_env</text>
<text text-anchor="middle" x="538" y="-448.68" font-family="Times,serif" font-size="14.00">install_env</text>
</g>
<!-- ENV_IMG&#45;&gt;INSTALL_ENV_IMG -->
<g id="edge4" class="edge">
<title>ENV_IMG&#45;&gt;INSTALL_ENV_IMG</title>
<path fill="none" stroke="black" d="M538,-729.33C538,-676.94 538,-556.49 538,-496.37"/>
<polygon fill="black" stroke="black" points="541.5,-496.22 538,-486.22 534.5,-496.22 541.5,-496.22"/>
</g>
<!-- ENV_TAR -->
<g id="node13" class="node">
<title>ENV_TAR</title>
<polygon fill="royalblue" stroke="black" points="106.5,-52 15.5,-52 15.5,-16 112.5,-16 112.5,-46 106.5,-52"/>
<polyline fill="none" stroke="black" points="106.5,-52 106.5,-46 "/>
<polyline fill="none" stroke="black" points="112.5,-46 106.5,-46 "/>
<text text-anchor="middle" x="64" y="-30.3" font-family="Times,serif" font-size="14.00">docker_env.tar</text>
</g>
<!-- ENV_IMG&#45;&gt;ENV_TAR -->
<g id="edge13" class="edge">
<title>ENV_IMG&#45;&gt;ENV_TAR</title>
<path fill="none" stroke="red" d="M460.75,-753.76C327.13,-750.16 67,-732.94 67,-653.38 67,-653.38 67,-653.38 67,-149.12 67,-119.35 65.97,-85.23 65.11,-62.11"/>
<polygon fill="red" stroke="red" points="68.61,-61.87 64.73,-52.01 61.61,-62.14 68.61,-61.87"/>
<text text-anchor="middle" x="136.5" y="-404.55" font-family="Times,serif" font-size="14.00">make save_&lt;distro&gt;_env</text>
</g>
<!-- BUILD_IMG -->
<g id="node7" class="node">
<title>BUILD_IMG</title>
<path fill="royalblue" stroke="black" d="M785,-584.6C785,-587.24 748.69,-589.38 704,-589.38 659.31,-589.38 623,-587.24 623,-584.6 623,-584.6 623,-541.65 623,-541.65 623,-539.01 659.31,-536.87 704,-536.87 748.69,-536.87 785,-539.01 785,-541.65 785,-541.65 785,-584.6 785,-584.6"/>
<path fill="none" stroke="black" d="M785,-584.6C785,-581.97 748.69,-579.83 704,-579.83 659.31,-579.83 623,-581.97 623,-584.6"/>
<text text-anchor="middle" x="704" y="-566.92" font-family="Times,serif" font-size="14.00">cybermage:&lt;distro&gt;_build</text>
<text text-anchor="middle" x="704" y="-551.92" font-family="Times,serif" font-size="14.00">build</text>
</g>
<!-- DEVEL_IMG&#45;&gt;BUILD_IMG -->
<g id="edge2" class="edge">
<title>DEVEL_IMG&#45;&gt;BUILD_IMG</title>
<path fill="none" stroke="black" d="M688.36,-626.14C690.48,-617.73 692.89,-608.2 695.16,-599.18"/>
<polygon fill="black" stroke="black" points="698.6,-599.86 697.65,-589.3 691.81,-598.15 698.6,-599.86"/>
</g>
<!-- DEVEL_TAR -->
<g id="node14" class="node">
<title>DEVEL_TAR</title>
<polygon fill="royalblue" stroke="black" points="231.5,-52 130.5,-52 130.5,-16 237.5,-16 237.5,-46 231.5,-52"/>
<polyline fill="none" stroke="black" points="231.5,-52 231.5,-46 "/>
<polyline fill="none" stroke="black" points="237.5,-46 231.5,-46 "/>
<text text-anchor="middle" x="184" y="-30.3" font-family="Times,serif" font-size="14.00">docker_devel.tar</text>
</g>
<!-- DEVEL_IMG&#45;&gt;DEVEL_TAR -->
<g id="edge14" class="edge">
<title>DEVEL_IMG&#45;&gt;DEVEL_TAR</title>
<path fill="none" stroke="red" d="M599.95,-652.2C468.66,-651.27 226,-639.39 226,-564.12 226,-564.12 226,-564.12 226,-149.12 226,-117.35 211.48,-83.49 199.52,-60.98"/>
<polygon fill="red" stroke="red" points="202.5,-59.13 194.6,-52.07 196.37,-62.52 202.5,-59.13"/>
<text text-anchor="middle" x="300" y="-352.93" font-family="Times,serif" font-size="14.00">make save_&lt;distro&gt;_devel</text>
</g>
<!-- TEST_IMG -->
<g id="node8" class="node">
<title>TEST_IMG</title>
<path fill="royalblue" stroke="black" d="M806.5,-481.35C806.5,-483.99 772.21,-486.13 730,-486.13 687.79,-486.13 653.5,-483.99 653.5,-481.35 653.5,-481.35 653.5,-438.4 653.5,-438.4 653.5,-435.76 687.79,-433.62 730,-433.62 772.21,-433.62 806.5,-435.76 806.5,-438.4 806.5,-438.4 806.5,-481.35 806.5,-481.35"/>
<path fill="none" stroke="black" d="M806.5,-481.35C806.5,-478.72 772.21,-476.58 730,-476.58 687.79,-476.58 653.5,-478.72 653.5,-481.35"/>
<text text-anchor="middle" x="730" y="-463.68" font-family="Times,serif" font-size="14.00">cybermage:&lt;distro&gt;_test</text>
<text text-anchor="middle" x="730" y="-448.68" font-family="Times,serif" font-size="14.00">test</text>
</g>
<!-- BUILD_IMG&#45;&gt;TEST_IMG -->
<g id="edge3" class="edge">
<title>BUILD_IMG&#45;&gt;TEST_IMG</title>
<path fill="none" stroke="black" d="M710.49,-536.84C713.66,-524.51 717.52,-509.49 720.96,-496.07"/>
<polygon fill="black" stroke="black" points="724.4,-496.75 723.5,-486.19 717.62,-495.01 724.4,-496.75"/>
</g>
<!-- BUILD_IMG&#45;&gt;INSTALL_ENV_IMG -->
<g id="edge5" class="edge">
<title>BUILD_IMG&#45;&gt;INSTALL_ENV_IMG</title>
<path fill="none" stroke="black" stroke-dasharray="5,2" d="M662.54,-536.84C639.87,-523.01 611.64,-505.79 587.79,-491.24"/>
<polygon fill="black" stroke="black" points="589.58,-488.24 579.22,-486.02 585.93,-494.21 589.58,-488.24"/>
<text text-anchor="middle" x="662" y="-507.8" font-family="Times,serif" font-size="14.00">copy install</text>
</g>
<!-- BUILD_TAR -->
<g id="node15" class="node">
<title>BUILD_TAR</title>
<polygon fill="royalblue" stroke="black" points="1111,-52 1011,-52 1011,-16 1117,-16 1117,-46 1111,-52"/>
<polyline fill="none" stroke="black" points="1111,-52 1111,-46 "/>
<polyline fill="none" stroke="black" points="1117,-46 1111,-46 "/>
<text text-anchor="middle" x="1064" y="-30.3" font-family="Times,serif" font-size="14.00">docker_build.tar</text>
</g>
<!-- BUILD_IMG&#45;&gt;BUILD_TAR -->
<g id="edge15" class="edge">
<title>BUILD_IMG&#45;&gt;BUILD_TAR</title>
<path fill="none" stroke="red" d="M785.18,-558.27C903.67,-550.4 1110,-527.16 1110,-460.88 1110,-460.88 1110,-460.88 1110,-149.12 1110,-117.02 1094.15,-83.28 1081.05,-60.88"/>
<polygon fill="red" stroke="red" points="1084.03,-59.04 1075.85,-52.31 1078.04,-62.67 1084.03,-59.04"/>
<text text-anchor="middle" x="1183.5" y="-301.3" font-family="Times,serif" font-size="14.00">make save_&lt;distro&gt;_build</text>
</g>
<!-- TEST_TAR -->
<g id="node16" class="node">
<title>TEST_TAR</title>
<polygon fill="royalblue" stroke="black" points="986.5,-52 895.5,-52 895.5,-16 992.5,-16 992.5,-46 986.5,-52"/>
<polyline fill="none" stroke="black" points="986.5,-52 986.5,-46 "/>
<polyline fill="none" stroke="black" points="992.5,-46 986.5,-46 "/>
<text text-anchor="middle" x="944" y="-30.3" font-family="Times,serif" font-size="14.00">docker_test.tar</text>
</g>
<!-- TEST_IMG&#45;&gt;TEST_TAR -->
<g id="edge16" class="edge">
<title>TEST_IMG&#45;&gt;TEST_TAR</title>
<path fill="none" stroke="red" d="M806.65,-453.34C868.06,-444.24 944,-420.3 944,-357.62 944,-357.62 944,-357.62 944,-149.12 944,-119.36 944,-85.24 944,-62.11"/>
<polygon fill="red" stroke="red" points="947.5,-62.01 944,-52.01 940.5,-62.02 947.5,-62.01"/>
<text text-anchor="middle" x="1013" y="-249.68" font-family="Times,serif" font-size="14.00">make save_&lt;distro&gt;_test</text>
</g>
<!-- INSTALL_ENV_IMG&#45;&gt;INSTALL_DEVEL_IMG -->
<g id="edge6" class="edge">
<title>INSTALL_ENV_IMG&#45;&gt;INSTALL_DEVEL_IMG</title>
<path fill="none" stroke="black" d="M529.26,-433.59C524.96,-421.14 519.7,-405.95 515.03,-392.43"/>
<polygon fill="black" stroke="black" points="518.33,-391.25 511.75,-382.94 511.71,-393.54 518.33,-391.25"/>
</g>
<!-- INSTALL_ENV_TAR -->
<g id="node17" class="node">
<title>INSTALL_ENV_TAR</title>
<polygon fill="royalblue" stroke="black" points="871.5,-52 740.5,-52 740.5,-16 877.5,-16 877.5,-46 871.5,-52"/>
<polyline fill="none" stroke="black" points="871.5,-52 871.5,-46 "/>
<polyline fill="none" stroke="black" points="877.5,-46 871.5,-46 "/>
<text text-anchor="middle" x="809" y="-30.3" font-family="Times,serif" font-size="14.00">docker_install_env.tar</text>
</g>
<!-- INSTALL_ENV_IMG&#45;&gt;INSTALL_ENV_TAR -->
<g id="edge17" class="edge">
<title>INSTALL_ENV_IMG&#45;&gt;INSTALL_ENV_TAR</title>
<path fill="none" stroke="red" d="M564.26,-433.7C579.17,-419.13 598,-400.26 614,-382.75 674.77,-316.26 684.57,-294.95 744,-227.25 764.34,-204.09 777.99,-204.19 791,-176.25 808.11,-139.49 810.69,-91.84 810.33,-62.35"/>
<polygon fill="red" stroke="red" points="813.82,-61.91 810.07,-52 806.82,-62.08 813.82,-61.91"/>
<text text-anchor="middle" x="833" y="-249.68" font-family="Times,serif" font-size="14.00">make save_&lt;distro&gt;_install_env</text>
</g>
<!-- INSTALL_BUILD_IMG -->
<g id="node11" class="node">
<title>INSTALL_BUILD_IMG</title>
<path fill="royalblue" stroke="black" d="M624,-274.85C624,-277.49 578.73,-279.63 523,-279.63 467.27,-279.63 422,-277.49 422,-274.85 422,-274.85 422,-231.9 422,-231.9 422,-229.26 467.27,-227.12 523,-227.12 578.73,-227.12 624,-229.26 624,-231.9 624,-231.9 624,-274.85 624,-274.85"/>
<path fill="none" stroke="black" d="M624,-274.85C624,-272.22 578.73,-270.08 523,-270.08 467.27,-270.08 422,-272.22 422,-274.85"/>
<text text-anchor="middle" x="523" y="-257.18" font-family="Times,serif" font-size="14.00">cybermage:&lt;distro&gt;_install_build</text>
<text text-anchor="middle" x="523" y="-242.18" font-family="Times,serif" font-size="14.00">install_build</text>
</g>
<!-- INSTALL_DEVEL_IMG&#45;&gt;INSTALL_BUILD_IMG -->
<g id="edge8" class="edge">
<title>INSTALL_DEVEL_IMG&#45;&gt;INSTALL_BUILD_IMG</title>
<path fill="none" stroke="black" d="M508,-330.34C510.43,-318.01 513.4,-302.99 516.05,-289.57"/>
<polygon fill="black" stroke="black" points="519.49,-290.18 518,-279.69 512.63,-288.82 519.49,-290.18"/>
</g>
<!-- INSTALL_DEVEL_TAR -->
<g id="node18" class="node">
<title>INSTALL_DEVEL_TAR</title>
<polygon fill="royalblue" stroke="black" points="396.5,-52 255.5,-52 255.5,-16 402.5,-16 402.5,-46 396.5,-52"/>
<polyline fill="none" stroke="black" points="396.5,-52 396.5,-46 "/>
<polyline fill="none" stroke="black" points="402.5,-46 396.5,-46 "/>
<text text-anchor="middle" x="329" y="-30.3" font-family="Times,serif" font-size="14.00">docker_install_devel.tar</text>
</g>
<!-- INSTALL_DEVEL_IMG&#45;&gt;INSTALL_DEVEL_TAR -->
<g id="edge18" class="edge">
<title>INSTALL_DEVEL_IMG&#45;&gt;INSTALL_DEVEL_TAR</title>
<path fill="none" stroke="red" d="M452.72,-330.41C410.13,-305.95 351.98,-264.45 326,-209.25 303.58,-161.62 313.02,-98.24 321.37,-62.52"/>
<polygon fill="red" stroke="red" points="324.88,-62.92 323.89,-52.37 318.09,-61.23 324.88,-62.92"/>
<text text-anchor="middle" x="420" y="-198.05" font-family="Times,serif" font-size="14.00">make save_&lt;distro&gt;_install_devel</text>
</g>
<!-- INSTALL_TEST_IMG -->
<g id="node12" class="node">
<title>INSTALL_TEST_IMG</title>
<path fill="royalblue" stroke="black" d="M554.5,-171.6C554.5,-174.24 511.25,-176.38 458,-176.38 404.75,-176.38 361.5,-174.24 361.5,-171.6 361.5,-171.6 361.5,-128.65 361.5,-128.65 361.5,-126.01 404.75,-123.87 458,-123.87 511.25,-123.87 554.5,-126.01 554.5,-128.65 554.5,-128.65 554.5,-171.6 554.5,-171.6"/>
<path fill="none" stroke="black" d="M554.5,-171.6C554.5,-168.97 511.25,-166.83 458,-166.83 404.75,-166.83 361.5,-168.97 361.5,-171.6"/>
<text text-anchor="middle" x="458" y="-153.93" font-family="Times,serif" font-size="14.00">cybermage:&lt;distro&gt;_install_test</text>
<text text-anchor="middle" x="458" y="-138.93" font-family="Times,serif" font-size="14.00">install_test</text>
</g>
<!-- INSTALL_BUILD_IMG&#45;&gt;INSTALL_TEST_IMG -->
<g id="edge9" class="edge">
<title>INSTALL_BUILD_IMG&#45;&gt;INSTALL_TEST_IMG</title>
<path fill="none" stroke="black" d="M525.35,-226.96C525.23,-216.25 523.55,-204.02 518,-194.25 515.86,-190.49 513.24,-186.96 510.31,-183.69"/>
<polygon fill="black" stroke="black" points="512.56,-180.99 502.97,-176.49 507.66,-185.99 512.56,-180.99"/>
</g>
<!-- INSTALL_BUILD_TAR -->
<g id="node19" class="node">
<title>INSTALL_BUILD_TAR</title>
<polygon fill="royalblue" stroke="black" points="716,-52 576,-52 576,-16 722,-16 722,-46 716,-52"/>
<polyline fill="none" stroke="black" points="716,-52 716,-46 "/>
<polyline fill="none" stroke="black" points="722,-46 716,-46 "/>
<text text-anchor="middle" x="649" y="-30.3" font-family="Times,serif" font-size="14.00">docker_install_build.tar</text>
</g>
<!-- INSTALL_BUILD_IMG&#45;&gt;INSTALL_BUILD_TAR -->
<g id="edge19" class="edge">
<title>INSTALL_BUILD_IMG&#45;&gt;INSTALL_BUILD_TAR</title>
<path fill="none" stroke="red" d="M537.7,-227.01C561.84,-185.37 609.63,-102.92 633.98,-60.92"/>
<polygon fill="red" stroke="red" points="637.09,-62.52 639.08,-52.11 631.04,-59.01 637.09,-62.52"/>
<text text-anchor="middle" x="693.5" y="-146.43" font-family="Times,serif" font-size="14.00">make save_&lt;distro&gt;_install_build</text>
</g>
<!-- INSTALL_TEST_TAR -->
<g id="node20" class="node">
<title>INSTALL_TEST_TAR</title>
<polygon fill="royalblue" stroke="black" points="551.5,-52 420.5,-52 420.5,-16 557.5,-16 557.5,-46 551.5,-52"/>
<polyline fill="none" stroke="black" points="551.5,-52 551.5,-46 "/>
<polyline fill="none" stroke="black" points="557.5,-46 551.5,-46 "/>
<text text-anchor="middle" x="489" y="-30.3" font-family="Times,serif" font-size="14.00">docker_install_test.tar</text>
</g>
<!-- INSTALL_TEST_IMG&#45;&gt;INSTALL_TEST_TAR -->
<g id="edge20" class="edge">
<title>INSTALL_TEST_IMG&#45;&gt;INSTALL_TEST_TAR</title>
<path fill="none" stroke="red" d="M410.12,-123.8C399.02,-114.47 392.2,-103.18 399,-91 402.31,-85.08 406.23,-86.57 412,-83 425.38,-74.71 440.05,-65.58 452.96,-57.52"/>
<polygon fill="red" stroke="red" points="454.95,-60.41 461.58,-52.14 451.25,-54.47 454.95,-60.41"/>
<text text-anchor="middle" x="488" y="-94.8" font-family="Times,serif" font-size="14.00">make save_&lt;distro&gt;_install_test</text>
</g>
</g>
</svg>
